<svg width="6" height="28" viewBox="0 0 6 28" fill="none" xmlns="http://www.w3.org/2000/svg">
<path d="M5.625 14C5.625 14.5192 5.47105 15.0267 5.18261 15.4584C4.89417 15.8901 4.4842 16.2265 4.00454 16.4252C3.52489 16.6239 2.99709 16.6758 2.48789 16.5746C1.97869 16.4733 1.51096 16.2233 1.14384 15.8562C0.776731 15.489 0.526725 15.0213 0.425438 14.5121C0.324152 14.0029 0.376136 13.4751 0.574816 12.9955C0.773496 12.5158 1.10995 12.1058 1.54163 11.8174C1.97331 11.529 2.48082 11.375 3 11.375C3.69619 11.375 4.36387 11.6516 4.85616 12.1438C5.34844 12.6361 5.625 13.3038 5.625 14ZM3 0.875C2.48082 0.875 1.97331 1.02895 1.54163 1.31739C1.10995 1.60583 0.773497 2.0158 0.574817 2.49546C0.376137 2.97511 0.324153 3.50291 0.425439 4.01211C0.526725 4.52131 0.776732 4.98904 1.14384 5.35616C1.51096 5.72327 1.97869 5.97328 2.48789 6.07456C2.99709 6.17585 3.52489 6.12386 4.00454 5.92518C4.4842 5.7265 4.89417 5.39005 5.18261 4.95837C5.47105 4.52669 5.625 4.01918 5.625 3.5C5.625 2.80381 5.34844 2.13613 4.85616 1.64384C4.36387 1.15156 3.69619 0.875 3 0.875ZM3 21.875C2.48082 21.875 1.97331 22.029 1.54163 22.3174C1.10995 22.6058 0.773496 23.0158 0.574816 23.4955C0.376136 23.9751 0.324152 24.5029 0.425438 25.0121C0.526724 25.5213 0.776731 25.989 1.14384 26.3562C1.51096 26.7233 1.97869 26.9733 2.48789 27.0746C2.99709 27.1758 3.52489 27.1239 4.00454 26.9252C4.4842 26.7265 4.89417 26.3901 5.18261 25.9584C5.47105 25.5267 5.625 25.0192 5.625 24.5C5.625 23.8038 5.34844 23.1361 4.85615 22.6438C4.36387 22.1516 3.69619 21.875 3 21.875Z" fill="black"/>
</svg>
