<svg width="20" height="20" viewBox="0 0 20 20" fill="none" xmlns="http://www.w3.org/2000/svg">
<path d="M8.5863 14.3603L15.3665 7.58005L14.2644 6.50192L8.5863 12.18L5.7113 9.30505L4.63317 10.3832L8.5863 14.3603ZM9.99984 19.5832C8.69013 19.5832 7.45225 19.3316 6.2863 18.8285C5.12034 18.3254 4.10211 17.6386 3.23161 16.7681C2.36112 15.8976 1.67432 14.8793 1.17119 13.7134C0.668066 12.5474 0.416504 11.3095 0.416504 9.99984C0.416504 8.67413 0.668066 7.42829 1.17119 6.26234C1.67432 5.09638 2.36112 4.08213 3.23161 3.21963C4.10211 2.35713 5.12034 1.67432 6.2863 1.17119C7.45225 0.668066 8.69013 0.416504 9.99984 0.416504C11.3255 0.416504 12.5714 0.668066 13.7373 1.17119C14.9033 1.67432 15.9175 2.35713 16.78 3.21963C17.6425 4.08213 18.3254 5.09638 18.8285 6.26234C19.3316 7.42829 19.5832 8.67413 19.5832 9.99984C19.5832 11.3095 19.3316 12.5474 18.8285 13.7134C18.3254 14.8793 17.6425 15.8976 16.78 16.7681C15.9175 17.6386 14.9033 18.3254 13.7373 18.8285C12.5714 19.3316 11.3255 19.5832 9.99984 19.5832ZM9.99984 18.1457C12.2679 18.1457 14.1925 17.3511 15.7738 15.7618C17.355 14.1726 18.1457 12.2519 18.1457 9.99984C18.1457 7.7318 17.355 5.80713 15.7738 4.22588C14.1925 2.64463 12.2679 1.854 9.99984 1.854C7.74775 1.854 5.82711 2.64463 4.23786 4.22588C2.64862 5.80713 1.854 7.7318 1.854 9.99984C1.854 12.2519 2.64862 14.1726 4.23786 15.7618C5.82711 17.3511 7.74775 18.1457 9.99984 18.1457Z" fill="black"/>
</svg>
