<svg width="32" height="26" viewBox="0 0 32 26" fill="none" xmlns="http://www.w3.org/2000/svg">
<path d="M1 6.66683C1 4.79998 1 3.86656 1.36332 3.15353C1.68288 2.52631 2.19282 2.01638 2.82003 1.69681C3.53307 1.3335 4.4665 1.3335 6.33333 1.3335H12.1242C12.9395 1.3335 13.3472 1.3335 13.7308 1.4256C14.0708 1.50725 14.396 1.64193 14.6943 1.8247C15.0307 2.03083 15.319 2.31908 15.8955 2.8956L16.1045 3.10473C16.681 3.68125 16.9693 3.9695 17.3057 4.17563C17.604 4.3584 17.9292 4.49308 18.2692 4.57473C18.6528 4.66683 19.0605 4.66683 19.8758 4.66683H25.6667C27.5335 4.66683 28.467 4.66683 29.18 5.03015C29.8072 5.34971 30.3172 5.85965 30.6367 6.48686C31 7.1999 31 8.13333 31 10.0002V19.3335C31 21.2003 31 22.1338 30.6367 22.8468C30.3172 23.474 29.8072 23.984 29.18 24.3035C28.467 24.6668 27.5335 24.6668 25.6667 24.6668H6.33333C4.46648 24.6668 3.53307 24.6668 2.82003 24.3035C2.19282 23.984 1.68288 23.474 1.36332 22.8468C1 22.1338 1 21.2003 1 19.3335V6.66683Z" stroke="black" stroke-width="1.5" stroke-linecap="round" stroke-linejoin="round"/>
</svg>
