<svg width="11" height="11" viewBox="0 0 11 11" fill="none" xmlns="http://www.w3.org/2000/svg">
<mask id="path-1-inside-1_2669_446" fill="white">
<path d="M9.39638 10.7251C9.76331 11.0918 10.3581 11.0918 10.7251 10.7251C11.0918 10.3581 11.0918 9.76331 10.7251 9.39638L9.39638 10.7251ZM10.7251 9.39638L1.33112 0.00244141L0.00244141 1.33112L9.39638 10.7251L10.7251 9.39638Z"/>
</mask>
<path d="M9.39638 10.7251C9.76331 11.0918 10.3581 11.0918 10.7251 10.7251C11.0918 10.3581 11.0918 9.76331 10.7251 9.39638L9.39638 10.7251ZM10.7251 9.39638L1.33112 0.00244141L0.00244141 1.33112L9.39638 10.7251L10.7251 9.39638Z" fill="black"/>
<path d="M-1.06006 -2.38873L-2.38873 -1.06006L21.1815 22.5102L22.5102 21.1815L-1.06006 -2.38873ZM9.39638 10.7251L-14.1738 34.2953L-14.1678 34.3013L9.39638 10.7251ZM10.7251 10.7251L34.2892 34.3013L34.2953 34.2953L34.3013 34.2892L10.7251 10.7251ZM10.7251 9.39638L34.3013 -14.1678L34.2953 -14.1738L10.7251 9.39638ZM1.33112 0.00244141L24.9013 -23.5678L1.33112 -47.138L-22.2391 -23.5678L1.33112 0.00244141ZM0.00244141 1.33112L-23.5678 -22.2391L-47.138 1.33112L-23.5678 24.9013L0.00244141 1.33112ZM-14.1678 34.3013C-0.784789 47.6775 20.9062 47.6775 34.2892 34.3013L-12.8391 -12.8512C-0.189967 -25.4939 20.3114 -25.4939 32.9606 -12.8512L-14.1678 34.3013ZM34.3013 34.2892C47.6775 20.9062 47.6775 -0.784789 34.3013 -14.1678L-12.8512 32.9606C-25.4939 20.3114 -25.4939 -0.189967 -12.8512 -12.8391L34.3013 34.2892ZM34.2953 -14.1738L24.9013 -23.5678L-22.2391 23.5727L-12.8452 32.9666L34.2953 -14.1738ZM-22.2391 -23.5678L-23.5678 -22.2391L23.5727 24.9013L24.9013 23.5727L-22.2391 -23.5678ZM-23.5678 24.9013L-14.1738 34.2953L32.9666 -12.8452L23.5727 -22.2391L-23.5678 24.9013Z" fill="white" mask="url(#path-1-inside-1_2669_446)"/>
</svg>
