<svg width="30" height="32" viewBox="0 0 30 32" fill="none" xmlns="http://www.w3.org/2000/svg">
<path d="M10.2533 23.9167H4.8769C2.88439 23.9167 1.88814 23.9167 1.67852 23.762C1.44303 23.5881 1.38549 23.4855 1.35998 23.194C1.3373 22.9345 1.94789 21.9353 3.16912 19.9371C4.43001 17.8739 5.50066 14.8698 5.50066 10.6167C5.50066 8.26509 6.50154 6.00982 8.28313 4.34698C10.0647 2.68417 12.4811 1.75 15.0006 1.75C17.5202 1.75 19.9365 2.68417 21.7181 4.34698C23.4998 6.00982 24.5006 8.26509 24.5006 10.6167C24.5006 14.8698 25.5713 17.8739 26.8323 19.9371C28.0533 21.9353 28.664 22.9345 28.6414 23.194C28.6159 23.4855 28.5583 23.5881 28.3228 23.762C28.1132 23.9167 27.1169 23.9167 25.1245 23.9167H19.7506M10.2533 23.9167L10.2507 25.5C10.2507 28.1234 12.3774 30.25 15.0006 30.25C17.6241 30.25 19.7506 28.1234 19.7506 25.5V23.9167M10.2533 23.9167H19.7506" stroke="white" stroke-width="2" stroke-linecap="round" stroke-linejoin="round"/>
</svg>
