<svg width="20" height="20" viewBox="0 0 20 20" fill="none" xmlns="http://www.w3.org/2000/svg">
<path fill-rule="evenodd" clip-rule="evenodd" d="M14.1019 3.01027L17.0103 5.92162C17.9338 6.84603 18.6822 7.59517 19.164 8.24526C19.6602 8.91488 19.9809 9.61998 19.8068 10.4249C19.6328 11.2298 19.0493 11.7392 18.3208 12.1436C17.6135 12.5361 16.6226 12.9084 15.3999 13.3678L13.5876 14.0487C12.8594 14.3223 12.6611 14.4075 12.5137 14.5352C12.4395 14.5994 12.3731 14.6721 12.3159 14.7518C12.2021 14.9105 12.1351 15.1162 11.9286 15.8668L11.9173 15.9079C11.7076 16.67 11.5346 17.2989 11.345 17.7711C11.1527 18.2504 10.893 18.7043 10.4264 18.9706C10.1023 19.1556 9.73543 19.2526 9.36225 19.252C8.8249 19.2512 8.37491 18.9847 7.97109 18.6632C7.57322 18.3463 7.11239 17.8849 6.55409 17.326L5.09909 15.8695L1.31988 19.6526C1.05153 19.9212 0.616226 19.9215 0.347606 19.6531C0.0789855 19.3848 0.0787656 18.9494 0.347111 18.6809L4.12732 14.8968L2.72038 13.4884C2.16558 12.9331 1.70763 12.4747 1.39268 12.0789C1.07299 11.6773 0.807965 11.2304 0.804601 10.6967C0.802199 10.3165 0.900906 9.94246 1.09065 9.61302C1.35706 9.15047 1.80829 8.8927 2.28454 8.70157C2.7537 8.5132 3.37813 8.34105 4.13452 8.13255L4.17539 8.12129C4.92734 7.91397 5.13315 7.84676 5.29167 7.73264C5.37338 7.67381 5.44772 7.60531 5.51307 7.52863C5.63993 7.37978 5.72393 7.17976 5.99248 6.44682L6.64926 4.65422C7.10234 3.41754 7.46931 2.41589 7.85848 1.70072C8.25895 0.96476 8.76633 0.373391 9.57455 0.195081C10.3829 0.0167438 11.0917 0.339887 11.7644 0.839232C12.4179 1.32441 13.1716 2.07887 14.1019 3.01027ZM10.9447 1.94324C10.3922 1.53308 10.0997 1.48729 9.87073 1.53779C9.64174 1.58832 9.39534 1.75315 9.06626 2.35793C8.73159 2.9729 8.39829 3.8774 7.92012 5.1824L7.28355 6.91986C7.27128 6.95332 7.25921 6.98636 7.24728 7.019C7.03261 7.60634 6.8668 8.06001 6.55959 8.42052C6.42252 8.58131 6.26654 8.72504 6.09504 8.84852C5.71062 9.12526 5.24502 9.25322 4.64258 9.41887C4.6091 9.42803 4.57518 9.43738 4.54084 9.44682C3.73325 9.66948 3.18495 9.82174 2.79681 9.97757C2.40735 10.134 2.31391 10.2441 2.28218 10.2992C2.21414 10.4174 2.17871 10.5515 2.17957 10.688C2.17998 10.7519 2.20698 10.8941 2.46852 11.2227C2.72915 11.5501 3.1308 11.9537 3.72309 12.5466L7.49672 16.3241C8.09279 16.9208 8.49848 17.3254 8.82774 17.5876C9.15811 17.8507 9.30065 17.8769 9.36436 17.877C9.49774 17.8773 9.62891 17.8426 9.74487 17.7764C9.80042 17.7447 9.91152 17.6512 10.069 17.2589C10.2258 16.8681 10.379 16.3156 10.6028 15.502C10.6122 15.4679 10.6215 15.434 10.6306 15.4006C10.7956 14.7991 10.9232 14.3344 11.1987 13.9503C11.3187 13.783 11.4579 13.6305 11.6135 13.4957C11.971 13.1863 12.422 13.0172 13.0055 12.7984C13.038 12.7863 13.0708 12.774 13.104 12.7615L14.8614 12.1012C16.1521 11.6163 17.0461 11.2785 17.6535 10.9414C18.2503 10.6102 18.4133 10.3638 18.4629 10.1342C18.5126 9.90461 18.4659 9.61265 18.0592 9.06393C17.6454 8.5055 16.971 7.82774 15.9961 6.85192L13.1707 4.02362C12.1888 3.04072 11.5065 2.36036 10.9447 1.94324Z" fill="black"/>
</svg>
