<svg width="17" height="17" viewBox="0 0 17 17" fill="none" xmlns="http://www.w3.org/2000/svg">
<path d="M1.2767 13.3416C1.31307 13.0143 1.33126 12.8506 1.38078 12.6976C1.42472 12.5619 1.4868 12.4327 1.56534 12.3136C1.65387 12.1794 1.77031 12.0629 2.00321 11.83L12.4582 1.37508C13.3326 0.500625 14.7504 0.500625 15.6248 1.37508C16.4993 2.24953 16.4993 3.66729 15.6248 4.54174L5.16987 14.9967C4.93698 15.2296 4.82053 15.346 4.68629 15.4346C4.56719 15.5131 4.43803 15.5752 4.3023 15.6191C4.14931 15.6686 3.98564 15.6869 3.6583 15.7232L0.979004 16.0209L1.2767 13.3416Z" stroke="black" stroke-width="1.2" stroke-linecap="round" stroke-linejoin="round"/>
</svg>
