<svg width="15" height="15" viewBox="0 0 15 15" fill="none" xmlns="http://www.w3.org/2000/svg">
<path d="M6.51522 12.0304C9.56119 12.0304 12.0304 9.56119 12.0304 6.51522C12.0304 3.46925 9.56119 1 6.51522 1C3.46925 1 1 3.46925 1 6.51522C1 9.56119 3.46925 12.0304 6.51522 12.0304Z" stroke="#A6A6A6" stroke-linejoin="round"/>
<mask id="path-2-inside-1_2690_590" fill="white">
<path d="M14.2762 14.8757C14.4419 15.0414 14.7105 15.0414 14.8762 14.8757C15.0418 14.71 15.0418 14.4414 14.8762 14.2757L14.2762 14.8757ZM14.8762 14.2757L10.6337 10.0332L10.0337 10.6333L14.2762 14.8757L14.8762 14.2757Z"/>
</mask>
<path d="M14.2762 14.8757C14.4419 15.0414 14.7105 15.0414 14.8762 14.8757C15.0418 14.71 15.0418 14.4414 14.8762 14.2757L14.2762 14.8757ZM14.8762 14.2757L10.6337 10.0332L10.0337 10.6333L14.2762 14.8757L14.8762 14.2757Z" fill="black"/>
<path d="M3.09111 2.49056L2.49105 3.09062L26.0613 26.6608L26.6613 26.0608L3.09111 2.49056ZM14.2762 14.8757L-9.29406 38.446L-9.28802 38.452L14.2762 14.8757ZM14.8762 14.8757L38.4404 38.452L38.4464 38.446L38.4525 38.4399L14.8762 14.8757ZM14.8762 14.2757L38.4525 -9.28851L38.4464 -9.29455L14.8762 14.2757ZM10.6337 10.0332L34.204 -13.537L10.6337 -37.1072L-12.9365 -13.537L10.6337 10.0332ZM10.0337 10.6333L-13.5365 -12.937L-37.1068 10.6333L-13.5365 34.2035L10.0337 10.6333ZM-9.28802 38.452C3.89378 51.627 25.2586 51.627 38.4404 38.452L-8.68797 -8.70053C4.16241 -21.5443 24.99 -21.5443 37.8404 -8.70053L-9.28802 38.452ZM38.4525 38.4399C51.6275 25.2581 51.6275 3.89329 38.4525 -9.28851L-8.70004 37.8399C-21.5438 24.9895 -21.5438 4.16193 -8.70004 -8.68846L38.4525 38.4399ZM38.4464 -9.29455L34.204 -13.537L-12.9365 33.6034L-8.69401 37.8459L38.4464 -9.29455ZM-12.9365 -13.537L-13.5365 -12.937L33.6039 34.2035L34.204 33.6034L-12.9365 -13.537ZM-13.5365 34.2035L-9.29406 38.446L37.8464 -8.69449L33.6039 -12.937L-13.5365 34.2035Z" fill="#A6A6A6" mask="url(#path-2-inside-1_2690_590)"/>
</svg>
