<svg width="20" height="15" viewBox="0 0 20 15" fill="none" xmlns="http://www.w3.org/2000/svg">
<path d="M15.2406 8.7571V5.90206H12.3855V4.58435H15.2406V1.72932H16.5583V4.58435H19.4133V5.90206H16.5583V8.7571H15.2406ZM7.11469 6.97819C6.14837 6.97819 5.35775 6.67072 4.74282 6.05579C4.12789 5.44086 3.82042 4.65024 3.82042 3.68392C3.82042 2.7176 4.12789 1.92697 4.74282 1.31204C5.35775 0.697114 6.14837 0.389648 7.11469 0.389648C8.08101 0.389648 8.87164 0.697114 9.48657 1.31204C10.1015 1.92697 10.409 2.7176 10.409 3.68392C10.409 4.65024 10.1015 5.44086 9.48657 6.05579C8.87164 6.67072 8.08101 6.97819 7.11469 6.97819ZM0.0869141 14.0279V11.9635C0.0869141 11.4511 0.215026 10.9862 0.471246 10.5689C0.727465 10.1517 1.09716 9.84056 1.58032 9.63557C2.67841 9.15241 3.65452 8.812 4.5087 8.61434C5.36289 8.41669 6.23038 8.31786 7.11118 8.31786C7.99198 8.31786 8.85701 8.41669 9.70619 8.61434C10.5554 8.812 11.529 9.15241 12.6271 9.63557C13.1103 9.85519 13.4836 10.17 13.7472 10.5799C14.0107 10.9899 14.1425 11.4511 14.1425 11.9635V14.0279H0.0869141ZM1.40462 12.7102H12.8248V11.9635C12.8248 11.7293 12.7589 11.506 12.6271 11.2937C12.4953 11.0814 12.3196 10.924 12.1 10.8215C11.0605 10.3383 10.182 10.0199 9.4646 9.86617C8.7472 9.71243 7.96387 9.63557 7.11469 9.63557C6.26552 9.63557 5.47854 9.71243 4.7538 9.86617C4.02906 10.0199 3.14693 10.3383 2.1074 10.8215C1.88778 10.924 1.71575 11.0814 1.5913 11.2937C1.46685 11.506 1.40462 11.7293 1.40462 11.9635V12.7102ZM7.11469 5.66048C7.6857 5.66048 8.15788 5.47381 8.53123 5.10046C8.90458 4.7271 9.09125 4.25493 9.09125 3.68392C9.09125 3.11291 8.90458 2.64073 8.53123 2.26738C8.15788 1.89403 7.6857 1.70736 7.11469 1.70736C6.54368 1.70736 6.07151 1.89403 5.69815 2.26738C5.3248 2.64073 5.13813 3.11291 5.13813 3.68392C5.13813 4.25493 5.3248 4.7271 5.69815 5.10046C6.07151 5.47381 6.54368 5.66048 7.11469 5.66048Z" fill="black"/>
</svg>
