<svg width="19" height="13" viewBox="0 0 19 13" fill="none" xmlns="http://www.w3.org/2000/svg">
<path d="M9.75245 9.99501C10.6959 9.99501 11.497 9.66478 12.1559 9.00433C12.8147 8.34388 13.1442 7.54196 13.1442 6.59852C13.1442 5.65508 12.8139 4.85395 12.1535 4.1951C11.493 3.53624 10.6911 3.20681 9.74766 3.20681C8.80422 3.20681 8.00309 3.53704 7.34424 4.19749C6.68538 4.85794 6.35596 5.65987 6.35596 6.60331C6.35596 7.54675 6.68618 8.34787 7.34663 9.00673C8.00709 9.66558 8.80901 9.99501 9.75245 9.99501ZM9.74526 8.83702C9.12287 8.83702 8.59538 8.61912 8.16281 8.18336C7.73025 7.74772 7.51394 7.21864 7.51394 6.59612C7.51394 5.97372 7.73184 5.44624 8.16761 5.01367C8.60325 4.5811 9.13233 4.3648 9.75485 4.3648C10.3772 4.3648 10.9047 4.5827 11.3373 5.01846C11.7699 5.45411 11.9862 5.98319 11.9862 6.6057C11.9862 7.2281 11.7683 7.75558 11.3325 8.18815C10.8969 8.62072 10.3678 8.83702 9.74526 8.83702ZM9.75005 12.5905C7.80675 12.5905 6.04981 12.0381 4.47922 10.9334C2.90862 9.82862 1.73732 8.38449 0.965332 6.60091C1.73732 4.81733 2.90862 3.37321 4.47922 2.26845C6.04981 1.1637 7.80675 0.611328 9.75005 0.611328C11.6934 0.611328 13.4503 1.1637 15.0209 2.26845C16.5915 3.37321 17.7628 4.81733 18.5348 6.60091C17.7628 8.38449 16.5915 9.82862 15.0209 10.9334C13.4503 12.0381 11.6934 12.5905 9.75005 12.5905ZM9.74666 11.3926C11.3595 11.3926 12.8414 10.9567 14.1923 10.0849C15.5433 9.21305 16.5715 8.05171 17.277 6.60091C16.5715 5.15011 15.5445 3.98877 14.1957 3.11697C12.847 2.24517 11.3662 1.80924 9.75345 1.80924C8.14065 1.80924 6.65875 2.24517 5.30778 3.11697C3.9568 3.98877 2.92193 5.15011 2.20318 6.60091C2.92193 8.05171 3.95566 9.21305 5.30439 10.0849C6.65312 10.9567 8.13386 11.3926 9.74666 11.3926Z" fill="black"/>
</svg>
